<?xml version="1.0" standalone="no"?>
<!DOCTYPE svg PUBLIC "-//W3C//DTD SVG 20010904//EN"
 "http://www.w3.org/TR/2001/REC-SVG-20010904/DTD/svg10.dtd">
<svg version="1.0" xmlns="http://www.w3.org/2000/svg"
 width="96.000000pt" height="96.000000pt" viewBox="0 0 96.000000 96.000000"
 preserveAspectRatio="xMidYMid meet">

<g transform="translate(0.000000,96.000000) scale(0.100000,-0.100000)"
fill="#fff" stroke="none">
<path d="M609 927 c-99 -53 -136 -168 -85 -269 32 -66 147 -188 176 -188 26 0
128 95 170 158 35 53 47 119 31 172 -15 50 -37 69 -57 48 -13 -13 -14 -22 -4
-56 20 -66 7 -103 -68 -188 l-67 -75 -59 63 c-76 83 -89 109 -83 171 3 40 11
56 41 85 34 35 41 37 103 39 39 1 69 7 74 14 30 50 -92 68 -172 26z"/>
<path d="M284 744 c-139 -99 -164 -122 -164 -153 0 -37 24 -59 45 -41 8 7 15
20 15 29 0 10 33 41 78 73 l77 56 5 -122 5 -121 25 0 25 0 3 123 c3 121 3 122
23 111 17 -8 25 -8 36 3 18 19 10 38 -30 65 -55 38 -59 37 -143 -23z"/>
<path d="M666 784 c-21 -20 -20 -37 3 -65 16 -20 23 -22 46 -14 36 13 48 46
29 74 -18 25 -56 27 -78 5z"/>
<path d="M787 504 c-4 -4 -7 -37 -7 -73 l0 -66 -77 -56 -78 -57 -5 102 c-5
100 -5 101 -30 101 -25 0 -25 -1 -30 -102 l-5 -101 -80 59 c-47 34 -90 58
-105 58 -15 0 -58 -24 -105 -58 l-80 -59 -5 111 c-5 111 -5 112 -30 112 l-25
0 -3 -129 c-2 -109 0 -132 14 -147 10 -11 25 -19 34 -19 10 0 59 29 109 65
l92 65 84 -60 c113 -82 133 -92 159 -78 30 16 210 149 219 162 4 6 6 47 5 91
-3 72 -5 80 -23 83 -12 2 -24 0 -28 -4z"/>
</g>
</svg>
