<?xml version="1.0" standalone="no"?>
<!DOCTYPE svg PUBLIC "-//W3C//DTD SVG 20010904//EN"
 "http://www.w3.org/TR/2001/REC-SVG-20010904/DTD/svg10.dtd">
<svg version="1.0" xmlns="http://www.w3.org/2000/svg"
 width="512.000000pt" height="512.000000pt" viewBox="0 0 512.000000 512.000000"
 preserveAspectRatio="xMidYMid meet">
<g transform="translate(0.000000,512.000000) scale(0.100000,-0.100000)"
fill="#fff" stroke="none">
<path d="M2135 5104 c-682 -71 -1207 -275 -1526 -593 -326 -326 -535 -878
-598 -1581 -14 -148 -14 -592 0 -740 63 -703 272 -1255 598 -1581 323 -322
859 -528 1547 -594 182 -17 591 -20 769 -5 551 48 1031 195 1371 421 423 282
690 813 795 1581 26 195 37 697 20 899 -29 337 -100 676 -196 935 -44 119
-160 359 -186 385 -30 30 -92 26 -118 -7 -12 -15 -21 -35 -21 -45 0 -10 27
-70 59 -133 140 -271 234 -597 287 -986 22 -164 31 -650 15 -832 -58 -669
-256 -1203 -556 -1504 -355 -356 -1033 -565 -1835 -565 -553 0 -1031 95 -1420
282 -338 163 -534 357 -695 691 -191 396 -285 867 -285 1428 0 672 142 1245
409 1650 71 109 232 270 341 341 322 212 769 350 1300 399 149 14 552 14 700
0 264 -25 457 -60 675 -122 331 -95 600 -233 787 -405 36 -33 55 -43 81 -43
50 0 81 29 81 75 0 35 -7 45 -69 102 -312 290 -874 492 -1535 552 -157 15
-636 12 -795 -5z"/>
<path d="M1685 3731 c-81 -20 -146 -72 -187 -151 l-23 -45 -3 -919 c-3 -1055
-8 -992 81 -1081 66 -65 131 -90 221 -83 34 3 80 15 102 26 23 11 304 208 625
437 l584 416 5 -348 c5 -333 6 -350 27 -389 93 -174 330 -193 449 -36 19 24
37 63 44 95 7 37 10 332 8 972 l-3 920 -30 54 c-36 66 -85 107 -149 126 -102
31 -193 8 -266 -64 -77 -78 -80 -92 -80 -473 0 -180 -2 -328 -5 -328 -2 0
-121 83 -262 183 -142 101 -268 189 -281 196 -52 28 -112 -13 -112 -75 0 -41
4 -45 347 -289 155 -110 289 -212 297 -227 20 -32 20 -71 2 -106 -9 -18 -228
-180 -613 -453 -329 -235 -616 -438 -637 -453 -46 -31 -89 -33 -133 -6 -66 40
-63 -13 -63 967 0 873 0 889 20 921 24 39 81 66 123 58 16 -3 108 -62 205
-131 191 -136 218 -147 260 -102 30 32 29 87 0 114 -65 58 -350 250 -393 265
-52 18 -109 21 -160 9z m1716 -167 c61 -31 59 1 59 -971 0 -825 -1 -890 -18
-923 -32 -65 -101 -79 -154 -31 l-33 29 -3 909 c-2 683 1 915 10 937 12 30 61
66 91 66 10 0 32 -7 48 -16z"/>
</g>
</svg>
