<?xml version="1.0" standalone="no"?>
<!DOCTYPE svg PUBLIC "-//W3C//DTD SVG 20010904//EN"
 "http://www.w3.org/TR/2001/REC-SVG-20010904/DTD/svg10.dtd">
<svg version="1.0" xmlns="http://www.w3.org/2000/svg"
 width="512.000000pt" height="512.000000pt" viewBox="0 0 512.000000 512.000000"
 preserveAspectRatio="xMidYMid meet">
<g transform="translate(0.000000,512.000000) scale(0.100000,-0.100000)"
fill="#fff" stroke="none">
<path d="M1000 4487 c-172 -59 -294 -185 -344 -356 -14 -49 -16 -212 -16
-1570 0 -1004 4 -1531 11 -1561 42 -184 203 -341 396 -386 85 -20 207 -13 283
15 30 12 678 338 1440 726 l1385 704 5 -684 5 -684 30 -32 c100 -106 256 -62
286 81 9 41 10 499 6 1843 -5 1727 -6 1789 -24 1820 -31 52 -77 77 -142 77
-66 0 -111 -23 -141 -72 -19 -32 -20 -52 -20 -694 l0 -661 -212 108 c-190 97
-219 108 -266 109 -86 0 -141 -41 -162 -121 -14 -50 2 -110 38 -149 15 -16
131 -82 267 -151 132 -67 251 -131 263 -143 84 -75 80 -243 -7 -305 -15 -11
-666 -345 -1446 -743 -1384 -705 -1421 -723 -1477 -723 -47 0 -64 5 -100 30
-23 17 -53 49 -65 70 l-23 40 0 1478 c0 1217 2 1483 13 1510 19 45 89 105 132
113 20 3 53 4 74 1 22 -3 391 -185 917 -453 813 -414 883 -448 929 -448 28 0
64 8 82 17 95 50 111 193 30 264 -42 37 -1776 917 -1846 937 -82 24 -221 21
-301 -7z"/>
</g>
</svg>
