<?xml version="1.0" standalone="no"?>
<!DOCTYPE svg PUBLIC "-//W3C//DTD SVG 20010904//EN"
 "http://www.w3.org/TR/2001/REC-SVG-20010904/DTD/svg10.dtd">
<svg version="1.0" xmlns="http://www.w3.org/2000/svg"
 width="512.000000pt" height="512.000000pt" viewBox="0 0 512.000000 512.000000"
 preserveAspectRatio="xMidYMid meet">
<g transform="translate(0.000000,512.000000) scale(0.100000,-0.100000)"
fill="#fff" stroke="none">
<path d="M2135 5104 c-682 -71 -1207 -275 -1526 -593 -326 -326 -535 -878
-598 -1581 -14 -148 -14 -592 0 -740 63 -703 272 -1255 598 -1581 323 -322
859 -528 1547 -594 182 -17 591 -20 769 -5 551 48 1031 195 1371 421 423 282
690 813 795 1581 26 195 37 697 20 899 -29 337 -100 676 -196 935 -44 119
-160 359 -186 385 -30 30 -92 26 -118 -7 -12 -15 -21 -35 -21 -45 0 -10 27
-70 59 -133 140 -271 234 -597 287 -986 22 -164 31 -650 15 -832 -58 -669
-256 -1203 -556 -1504 -355 -356 -1033 -565 -1835 -565 -553 0 -1031 95 -1420
282 -338 163 -534 357 -695 691 -191 396 -285 867 -285 1428 0 672 142 1245
409 1650 71 109 232 270 341 341 322 212 769 350 1300 399 149 14 552 14 700
0 264 -25 457 -60 675 -122 331 -95 600 -233 787 -405 36 -33 55 -43 81 -43
50 0 81 29 81 75 0 35 -7 45 -69 102 -312 290 -874 492 -1535 552 -157 15
-636 12 -795 -5z"/>
<path d="M1940 3731 c-82 -27 -159 -102 -179 -173 -9 -32 -11 -289 -9 -988 3
-1061 -3 -970 79 -1050 98 -95 267 -93 364 5 81 80 76 11 73 1085 -3 869 -5
958 -20 985 -24 44 -76 94 -122 117 -44 22 -145 33 -186 19z m143 -191 l27
-30 0 -918 c0 -854 -2 -918 -18 -938 -34 -43 -79 -54 -127 -32 -57 26 -55 -11
-55 976 l0 909 21 27 c43 54 105 57 152 6z"/>
<path d="M3027 3726 c-83 -31 -146 -94 -167 -167 -6 -21 -10 -392 -10 -974 l0
-941 26 -52 c78 -157 295 -191 420 -65 73 73 69 23 72 770 3 664 2 673 -18
693 -28 28 -90 27 -116 -1 -18 -20 -19 -50 -24 -668 -3 -355 -9 -653 -13 -662
-10 -21 -60 -49 -87 -49 -28 0 -61 17 -82 44 -16 20 -18 84 -18 938 l0 918 29
32 c39 44 98 46 139 5 26 -26 27 -32 32 -158 5 -122 7 -132 29 -150 30 -25 72
-24 105 2 26 20 26 22 26 151 0 72 -5 148 -12 170 -15 50 -79 123 -131 150
-52 26 -149 33 -200 14z"/>
</g>
</svg>
