<?xml version="1.0" standalone="no"?>
<!DOCTYPE svg PUBLIC "-//W3C//DTD SVG 20010904//EN"
 "http://www.w3.org/TR/2001/REC-SVG-20010904/DTD/svg10.dtd">
<svg version="1.0" xmlns="http://www.w3.org/2000/svg"
 width="512.000000pt" height="512.000000pt" viewBox="0 0 512.000000 512.000000"
 preserveAspectRatio="xMidYMid meet">
<g transform="translate(0.000000,512.000000) scale(0.100000,-0.100000)"
fill="#fff" stroke="none">
<path d="M705 5101 c-317 -80 -553 -335 -604 -651 -15 -90 -15 -3690 0 -3780
51 -320 298 -581 617 -654 102 -23 602 -23 704 0 319 73 566 334 617 654 15
90 15 3690 0 3780 -51 320 -298 581 -617 654 -107 24 -618 22 -717 -3z m577
-390 c127 -17 240 -90 302 -196 59 -100 56 3 56 -1955 0 -1958 3 -1855 -56
-1955 -62 -106 -175 -179 -302 -196 -86 -11 -338 -11 -424 0 -127 17 -240 90
-302 196 -59 100 -56 -3 -56 1955 0 1958 -3 1855 56 1955 60 103 176 180 293
195 81 11 354 11 433 1z"/>
<path d="M3695 5101 c-317 -80 -553 -335 -604 -651 -15 -90 -15 -3690 0 -3780
51 -320 298 -581 617 -654 102 -23 592 -23 694 0 361 82 627 410 628 772 0
127 -82 212 -205 212 -116 0 -205 -86 -205 -198 0 -54 -26 -147 -56 -197 -62
-106 -175 -179 -302 -196 -86 -11 -328 -11 -414 0 -127 17 -240 90 -302 196
-59 100 -56 -3 -56 1955 0 1958 -3 1855 56 1955 62 106 175 179 302 196 37 4
130 8 207 8 77 0 170 -4 207 -8 127 -17 240 -90 302 -196 58 -98 56 -44 56
-1457 0 -1409 -3 -1337 53 -1396 77 -83 227 -83 304 0 56 59 53 -15 53 1410 0
869 -4 1335 -11 1378 -51 320 -298 581 -617 654 -107 24 -608 22 -707 -3z"/>
</g>
</svg>
