<?xml version="1.0" standalone="no"?>
<!DOCTYPE svg PUBLIC "-//W3C//DTD SVG 20010904//EN"
 "http://www.w3.org/TR/2001/REC-SVG-20010904/DTD/svg10.dtd">
<svg version="1.0" xmlns="http://www.w3.org/2000/svg"
 width="512.000000pt" height="512.000000pt" viewBox="0 0 512.000000 512.000000"
 preserveAspectRatio="xMidYMid meet">
<g transform="translate(0.000000,512.000000) scale(0.100000,-0.100000)"
fill="#fff" stroke="none">
<path d="M2255 4865 c-432 -61 -831 -233 -1161 -499 -97 -78 -272 -254 -350
-351 -238 -298 -401 -661 -475 -1055 -21 -112 -24 -153 -24 -400 0 -298 7
-358 66 -587 77 -301 239 -625 434 -868 77 -96 254 -274 350 -351 308 -249
672 -414 1070 -485 116 -21 160 -24 400 -24 240 1 284 3 395 24 477 89 878
294 1214 620 362 353 588 778 677 1276 21 114 24 162 24 390 0 284 -9 368 -65
588 -38 150 -87 282 -165 442 -222 456 -607 841 -1060 1060 -220 107 -392 163
-635 207 -150 27 -542 34 -695 13z m595 -171 c606 -79 1166 -432 1507 -950
165 -251 272 -522 329 -829 25 -138 30 -479 10 -630 -67 -479 -278 -909 -615
-1246 -597 -596 -1475 -789 -2271 -498 -195 72 -460 224 -616 354 -432 360
-706 862 -774 1418 -16 129 -8 481 14 602 127 692 546 1258 1161 1569 392 197
811 267 1255 210z"/>
<path d="M1700 4380 c-13 -13 -20 -33 -20 -60 0 -53 27 -80 80 -80 53 0 80 27
80 80 0 27 -7 47 -20 60 -13 13 -33 20 -60 20 -27 0 -47 -7 -60 -20z"/>
<path d="M1404 4199 c-324 -227 -581 -562 -725 -945 -54 -145 -52 -201 11
-222 40 -14 86 2 104 37 7 14 23 58 36 96 102 315 343 643 631 860 57 43 107
83 111 89 16 23 8 86 -12 106 -34 34 -87 27 -156 -21z"/>
<path d="M1863 3661 c-105 -39 -180 -107 -231 -211 l-27 -55 0 -835 0 -835 29
-60 c38 -77 114 -153 191 -191 56 -27 68 -29 175 -29 107 0 119 2 175 29 77
38 153 114 191 191 l29 60 0 835 0 835 -29 60 c-38 77 -114 153 -191 190 -52
26 -73 30 -160 33 -79 2 -111 -2 -152 -17z m235 -170 c51 -26 91 -68 116 -121
21 -44 21 -54 21 -805 0 -838 2 -804 -64 -878 -114 -127 -311 -94 -385 63 -21
45 -21 53 -21 810 0 757 0 765 21 810 24 52 64 94 114 121 48 25 148 25 198 0z"/>
<path d="M2983 3661 c-105 -39 -180 -107 -231 -211 l-27 -55 0 -835 0 -835 29
-60 c38 -77 114 -153 191 -191 56 -27 68 -29 175 -29 107 0 119 2 175 29 77
38 153 114 191 191 l29 60 0 835 0 835 -29 60 c-38 77 -114 153 -191 190 -52
26 -73 30 -160 33 -79 2 -111 -2 -152 -17z m235 -170 c51 -26 91 -68 116 -121
21 -44 21 -54 21 -805 0 -838 2 -804 -64 -878 -114 -127 -311 -94 -385 63 -21
45 -21 53 -21 810 0 757 0 765 21 810 24 52 64 94 114 121 48 25 148 25 198 0z"/>
</g>
</svg>
