<?xml version="1.0" standalone="no"?>
<!DOCTYPE svg PUBLIC "-//W3C//DTD SVG 20010904//EN"
 "http://www.w3.org/TR/2001/REC-SVG-20010904/DTD/svg10.dtd">
<svg version="1.0" xmlns="http://www.w3.org/2000/svg"
 width="512.000000pt" height="512.000000pt" viewBox="0 0 512.000000 512.000000"
 preserveAspectRatio="xMidYMid meet">
<g transform="translate(0.000000,512.000000) scale(0.100000,-0.100000)"
fill="#fff" stroke="none">
<path d="M2240 5105 c-444 -55 -852 -220 -1220 -493 -150 -112 -400 -362 -512
-512 -276 -372 -439 -779 -494 -1230 -17 -148 -17 -472 0 -620 55 -451 218
-858 494 -1230 112 -150 362 -400 512 -512 372 -276 779 -439 1230 -494 148
-17 472 -17 620 0 451 55 858 218 1230 494 150 112 400 362 512 512 276 372
439 779 494 1230 17 148 17 472 0 620 -55 451 -218 858 -494 1230 -112 150
-362 400 -512 512 -372 276 -779 439 -1230 494 -143 17 -488 16 -630 -1z m616
-159 c431 -57 799 -206 1144 -462 135 -100 384 -349 484 -484 320 -430 476
-904 476 -1440 0 -536 -156 -1010 -476 -1440 -100 -135 -349 -384 -484 -484
-430 -320 -904 -476 -1440 -476 -536 0 -1010 156 -1440 476 -135 100 -384 349
-484 484 -320 430 -476 904 -476 1440 0 536 156 1010 476 1440 100 135 349
384 484 484 347 258 712 404 1165 465 104 15 452 12 571 -3z"/>
<path d="M2978 4692 c-49 -30 -47 -106 3 -133 34 -18 191 -59 227 -59 44 0 72
30 72 78 0 24 -7 45 -17 55 -16 13 -221 77 -248 77 -5 0 -22 -8 -37 -18z"/>
<path d="M3523 4480 c-58 -53 -38 -101 70 -166 141 -85 278 -194 402 -318 160
-160 287 -332 373 -503 32 -63 63 -93 94 -93 53 0 94 53 80 102 -12 38 -70
146 -129 236 -188 292 -424 522 -720 702 -104 64 -137 72 -170 40z"/>
<path d="M1845 3666 c-46 -21 -83 -66 -94 -116 -15 -63 -15 -1911 0 -1979 19
-88 103 -143 195 -128 29 5 1652 880 1790 965 101 62 122 189 45 267 -42 44
-219 139 -259 139 -60 0 -94 -64 -63 -121 5 -11 55 -44 110 -74 56 -29 101
-56 101 -59 0 -10 -1752 -960 -1761 -954 -12 7 -12 1901 0 1908 5 4 294 -149
642 -339 348 -190 643 -345 655 -345 12 0 33 9 48 21 35 27 36 86 4 116 -13
12 -306 175 -652 364 -558 304 -635 343 -680 346 -30 2 -64 -3 -81 -11z"/>
<path d="M613 1708 c-26 -12 -44 -57 -36 -89 4 -12 29 -63 56 -113 180 -328
440 -603 757 -804 110 -70 316 -172 347 -172 36 0 73 42 73 83 0 43 -16 57
-119 107 -397 192 -716 496 -925 883 -62 113 -92 134 -153 105z"/>
</g>
</svg>
