<?xml version="1.0" standalone="no"?>
<!DOCTYPE svg PUBLIC "-//W3C//DTD SVG 20010904//EN"
 "http://www.w3.org/TR/2001/REC-SVG-20010904/DTD/svg10.dtd">
<svg version="1.0" xmlns="http://www.w3.org/2000/svg"
 width="512.000000pt" height="512.000000pt" viewBox="0 0 512.000000 512.000000"
 preserveAspectRatio="xMidYMid meet">
<g transform="translate(0.000000,512.000000) scale(0.100000,-0.100000)"
fill="#fff" stroke="none">
<path d="M2135 5104 c-682 -71 -1207 -275 -1526 -593 -326 -326 -535 -878
-598 -1581 -14 -148 -14 -592 0 -740 63 -703 272 -1255 598 -1581 323 -322
859 -528 1547 -594 182 -17 591 -20 769 -5 551 48 1031 195 1371 421 423 282
690 813 795 1581 26 195 37 697 20 899 -29 337 -100 676 -196 935 -44 119
-160 359 -186 385 -30 30 -92 26 -118 -7 -12 -15 -21 -35 -21 -45 0 -10 27
-70 59 -133 139 -269 228 -573 282 -957 27 -192 38 -656 20 -861 -58 -669
-256 -1203 -556 -1504 -355 -356 -1033 -565 -1835 -565 -553 0 -1031 95 -1420
282 -338 163 -534 357 -695 691 -191 396 -285 867 -285 1428 0 671 142 1245
409 1650 71 109 232 270 341 341 322 212 769 350 1300 399 149 14 552 14 700
0 264 -25 457 -60 675 -122 331 -95 600 -233 787 -405 36 -33 55 -43 81 -43
50 0 81 29 81 75 0 35 -7 45 -69 102 -312 290 -874 492 -1535 552 -157 15
-636 12 -795 -5z"/>
<path d="M1874 3816 c-48 -21 -115 -86 -135 -131 -18 -38 -19 -97 -19 -1120 0
-1032 1 -1082 19 -1120 24 -51 84 -109 136 -131 52 -21 149 -22 199 -1 40 17
1573 999 1637 1048 19 15 48 51 64 81 25 44 29 64 29 123 0 70 -11 104 -56
167 -15 21 -561 383 -646 427 -30 16 -78 5 -97 -22 -22 -32 -19 -80 8 -104 12
-12 155 -107 317 -211 256 -165 297 -195 308 -225 30 -77 65 -51 -823 -622
-885 -568 -845 -547 -906 -489 l-29 28 0 1049 0 1049 29 29 c57 57 63 54 460
-201 385 -247 404 -257 451 -210 23 23 26 76 7 101 -15 20 -710 467 -754 485
-41 18 -159 17 -199 0z"/>
</g>
</svg>
