<?xml version="1.0" standalone="no"?>
<!DOCTYPE svg PUBLIC "-//W3C//DTD SVG 20010904//EN"
 "http://www.w3.org/TR/2001/REC-SVG-20010904/DTD/svg10.dtd">
<svg version="1.0" xmlns="http://www.w3.org/2000/svg"
 width="512.000000pt" height="512.000000pt" viewBox="0 0 512.000000 512.000000"
 preserveAspectRatio="xMidYMid meet">
<g transform="translate(0.000000,512.000000) scale(0.100000,-0.100000)"
fill="#fff" stroke="none">
<path d="M903 5110 c-23 -5 -76 -22 -117 -39 -211 -85 -372 -270 -423 -488
-17 -74 -18 -175 -18 -2028 l0 -1950 23 -79 c67 -233 226 -407 444 -488 108
-40 284 -50 388 -23 101 26 220 86 258 129 42 48 52 75 52 139 0 63 -28 117
-83 161 -31 25 -49 31 -101 34 -56 4 -73 0 -144 -32 -62 -28 -92 -36 -138 -36
-110 0 -210 69 -263 180 l-26 55 0 1920 0 1920 28 57 c71 144 244 210 382 144
88 -42 3069 -1885 3109 -1922 116 -109 118 -303 2 -415 -20 -19 -532 -338
-1139 -709 -623 -381 -1118 -690 -1138 -711 -68 -69 -76 -179 -19 -258 40 -55
94 -81 167 -81 48 0 69 6 124 38 37 20 552 334 1145 697 999 612 1083 665
1154 735 152 151 224 360 199 578 -22 195 -127 376 -283 486 -85 60 -3058
1891 -3128 1927 -96 49 -189 69 -308 68 -58 -1 -124 -5 -147 -9z"/>
</g>
</svg>
