<?xml version="1.0" standalone="no"?>
<!DOCTYPE svg PUBLIC "-//W3C//DTD SVG 20010904//EN"
 "http://www.w3.org/TR/2001/REC-SVG-20010904/DTD/svg10.dtd">
<svg version="1.0" xmlns="http://www.w3.org/2000/svg"
 width="512.000000pt" height="512.000000pt" viewBox="0 0 512.000000 512.000000"
 preserveAspectRatio="xMidYMid meet">
<g transform="translate(0.000000,512.000000) scale(0.100000,-0.100000)"
fill="#fff" stroke="none">
<path d="M3800 4487 c-90 -31 -1799 -902 -1832 -934 -76 -72 -57 -212 35 -260
18 -9 55 -17 82 -17 46 0 116 33 930 448 512 261 895 451 917 453 62 9 107 -5
153 -48 24 -23 50 -57 57 -77 10 -30 13 -325 13 -1502 l0 -1465 -25 -45 c-14
-24 -45 -58 -68 -75 -36 -25 -53 -30 -100 -30 -56 0 -94 19 -1477 724 -781
398 -1432 732 -1447 742 -86 62 -90 230 -6 305 12 12 131 76 263 143 141 71
251 134 267 151 37 40 52 99 38 149 -21 80 -76 121 -160 121 -46 0 -75 -12
-253 -102 -111 -57 -205 -104 -209 -106 -4 -2 -9 291 -10 650 -3 638 -3 654
-24 688 -32 55 -77 80 -143 80 -66 0 -111 -23 -141 -72 -20 -33 -20 -51 -18
-1876 l3 -1843 41 -39 c71 -66 157 -66 228 0 l41 39 7 677 c4 372 9 679 12
681 3 3 627 -311 1388 -698 761 -387 1408 -712 1438 -722 79 -27 191 -32 273
-13 193 45 354 202 396 386 7 30 11 557 11 1561 0 1358 -2 1521 -16 1570 -52
175 -188 311 -363 363 -82 24 -220 21 -301 -7z"/>
</g>
</svg>
