<?xml version="1.0" standalone="no"?>
<!DOCTYPE svg PUBLIC "-//W3C//DTD SVG 20010904//EN"
 "http://www.w3.org/TR/2001/REC-SVG-20010904/DTD/svg10.dtd">
<svg version="1.0" xmlns="http://www.w3.org/2000/svg"
 width="512.000000pt" height="512.000000pt" viewBox="0 0 512.000000 512.000000"
 preserveAspectRatio="xMidYMid meet">
<g transform="translate(0.000000,512.000000) scale(0.100000,-0.100000)"
fill="#fff" stroke="none">
<path d="M2135 5104 c-682 -71 -1207 -275 -1526 -593 -326 -326 -535 -878
-598 -1581 -14 -148 -14 -592 0 -740 63 -703 272 -1255 598 -1581 323 -322
859 -528 1547 -594 182 -17 591 -20 769 -5 551 48 1031 195 1371 421 423 282
690 813 795 1581 26 195 37 697 20 899 -29 337 -100 676 -196 935 -44 119
-160 359 -186 385 -30 30 -92 26 -118 -7 -12 -15 -21 -35 -21 -45 0 -10 27
-70 59 -133 140 -271 234 -597 287 -986 22 -164 31 -650 15 -832 -58 -669
-256 -1203 -556 -1504 -355 -356 -1033 -565 -1835 -565 -553 0 -1031 95 -1420
282 -338 163 -532 355 -695 691 -143 293 -237 664 -276 1090 -17 190 -6 683
19 863 86 601 268 1044 541 1315 213 212 542 371 972 471 272 63 531 90 859
90 397 0 695 -39 1025 -133 331 -95 600 -233 787 -405 36 -33 55 -43 81 -43
50 0 81 29 81 75 0 35 -7 45 -69 102 -312 290 -874 492 -1535 552 -157 15
-636 12 -795 -5z"/>
<path d="M1680 3725 c-60 -19 -109 -62 -145 -126 l-30 -54 0 -950 c0 -1052 -4
-979 65 -1059 45 -50 102 -78 177 -84 106 -8 205 46 256 142 21 39 22 56 27
389 l5 348 584 -416 c322 -229 603 -426 625 -437 22 -11 68 -23 102 -26 90 -7
155 18 221 83 89 89 84 26 81 1081 l-3 919 -23 45 c-47 90 -125 144 -225 156
-93 11 -143 -11 -332 -146 -93 -66 -177 -128 -187 -137 -27 -24 -24 -84 5
-111 44 -42 70 -32 259 103 97 69 189 128 205 131 42 8 99 -19 123 -58 20 -32
20 -48 20 -921 0 -980 3 -927 -63 -967 -36 -22 -82 -25 -113 -7 -12 7 -299
210 -639 452 -395 281 -622 450 -631 467 -18 35 -18 74 2 106 8 15 142 117
297 227 343 244 347 248 347 289 0 62 -60 103 -112 75 -13 -7 -139 -95 -280
-196 -141 -100 -259 -183 -262 -183 -3 0 -6 148 -6 328 0 381 -3 395 -80 473
-72 72 -169 95 -270 64z m130 -160 c63 -33 61 16 58 -986 l-3 -911 -33 -29
c-53 -48 -122 -34 -154 31 -17 33 -18 97 -18 921 0 633 3 895 11 918 12 34 60
71 92 71 10 0 31 -7 47 -15z"/>
</g>
</svg>
